<?xml version="1.0" encoding="UTF-8" standalone="no"?>
<svg
   xmlns:dc="http://purl.org/dc/elements/1.1/"
   xmlns:cc="http://creativecommons.org/ns#"
   xmlns:rdf="http://www.w3.org/1999/02/22-rdf-syntax-ns#"
   xmlns:svg="http://www.w3.org/2000/svg"
   xmlns="http://www.w3.org/2000/svg"
   xmlns:sodipodi="http://sodipodi.sourceforge.net/DTD/sodipodi-0.dtd"
   xmlns:inkscape="http://www.inkscape.org/namespaces/inkscape"
   viewBox="0 0 24 24"
   enable-background="new 0 0 24 24"
   version="1.1"
   id="svg827"
   sodipodi:docname="pika-icon.svg"
   inkscape:version="0.92.4 (5da689c313, 2019-01-14)">
  <metadata
     id="metadata833">
    <rdf:RDF>
      <cc:Work
         rdf:about="">
        <dc:format>image/svg+xml</dc:format>
        <dc:type
           rdf:resource="http://purl.org/dc/dcmitype/StillImage" />
      </cc:Work>
    </rdf:RDF>
  </metadata>
  <defs
     id="defs831" />
  <sodipodi:namedview
     pagecolor="#ffffff"
     bordercolor="#666666"
     borderopacity="1"
     objecttolerance="10"
     gridtolerance="10"
     guidetolerance="10"
     inkscape:pageopacity="0"
     inkscape:pageshadow="2"
     inkscape:window-width="2635"
     inkscape:window-height="1206"
     id="namedview829"
     showgrid="false"
     inkscape:zoom="26"
     inkscape:cx="17.048777"
     inkscape:cy="10.943235"
     inkscape:window-x="1524"
     inkscape:window-y="199"
     inkscape:window-maximized="0"
     inkscape:current-layer="svg827" />
  <path
     d="M 22.84375 3 C 18.130491 3.7019747 15.836364 7.5977738 15.28125 8.59375 C 14.418083 8.3133157 13.42599 8 12 8 C 10.547633 8 9.5580418 8.3497903 8.6875 8.625 C 8.1265471 7.7098662 5.9507871 4.388563 1.09375 4 A 1.0001 1.0001 0 0 0 0.03125 5.28125 C 0.43398771 6.690832 1.8065015 10.223318 5.1875 12.03125 C 5.0689627 12.378357 4.849366 12.789691 4.8125 13.0625 C 4.742135 13.583198 4.726607 13.861447 4.6875 13.96875 C 4.68618 13.97235 4.68885 13.99684 4.6875 14 C 3.8160702 15.924767 3.8292094 17.562945 4.40625 18.75 C 4.9864567 19.943568 6.0125334 20.617801 6.84375 20.9375 L 7.4375 19.34375 C 7.4903051 19.261427 7.5273914 19.159825 7.5625 19.0625 C 7.7380431 18.575876 7.6794468 17.931749 7.375 17.3125 C 7.0705532 16.693251 6.5862968 16.251915 6.09375 16.09375 C 6.1710529 15.720984 6.2739412 15.307004 6.5 14.8125 A 1.0001 1.0001 0 0 0 6.53125 14.78125 C 6.7899174 14.177693 6.7602472 13.699171 6.8125 13.3125 C 6.8647528 12.925829 6.9147558 12.612241 7.21875 12.15625 A 1.0001 1.0001 0 0 0 6.75 10.65625 C 5.1933611 10.05089 4.2257075 8.9664894 3.53125 7.84375 L 4.15625 7.15625 C 6.3230537 8.3723125 7.40625 10.15625 7.40625 10.15625 A 1.0001 1.0001 0 0 0 8.625 10.65625 C 9.525 10.35625 10.566667 10 12 10 C 13.433333 10 14.603607 10.347446 15.34375 10.625 A 1.0001 1.0001 0 0 0 16.59375 10.15625 C 16.59375 10.15625 18.021867 7.7686866 20.40625 6.25 L 20.90625 6.71875 C 20.193153 8.1325877 19.055297 9.4704831 17.15625 10.15625 A 1.0001 1.0001 0 0 0 16.65625 11.65625 C 16.935354 12.074906 17.063534 12.549043 17.15625 13.09375 C 17.24747 13.629655 17.265013 14.226462 17.625 14.875 C 17.6303 14.8846 17.6199 14.89661 17.625 14.90625 C 17.81332 15.259185 17.916127 15.616679 17.96875 15.96875 C 17.304369 15.939299 16.593429 16.553476 16.28125 17.46875 C 15.981813 18.346665 16.130941 19.216845 16.625 19.625 L 17.21875 20.90625 C 19.643545 19.757663 20.839335 16.590863 19.375 13.90625 C 19.3531 13.86793 19.232284 13.411543 19.125 12.78125 C 19.066676 12.438598 18.830704 11.978643 18.6875 11.5625 C 22.081411 9.9098152 23.786193 6.6594311 24 4.09375 A 1.0001 1.0001 0 0 0 22.84375 3 z M 9 14 C 8.4477153 14 8 14.447715 8 15 C 8 15.552285 8.4477153 16 9 16 C 9.5522847 16 10 15.552285 10 15 C 10 14.447715 9.5522847 14 9 14 z M 15 14 C 14.447715 14 14 14.447715 14 15 C 14 15.552285 14.447715 16 15 16 C 15.552285 16 16 15.552285 16 15 C 16 14.447715 15.552285 14 15 14 z M 12 16.5 C 11.668629 16.5 11.40625 16.646815 11.40625 16.8125 C 11.40625 16.978186 11.668629 17.09375 12 17.09375 C 12.331371 17.09375 12.59375 16.978186 12.59375 16.8125 C 12.59375 16.646815 12.331371 16.5 12 16.5 z"
     id="path825"
     style="fill:#ffffff" />
</svg>
