<?xml version="1.0" encoding="utf-8"?>
<!-- Generator: Adobe Illustrator 25.4.1, SVG Export Plug-In . SVG Version: 6.00 Build 0)  -->
<svg version="1.1" id="Layer_1" xmlns="http://www.w3.org/2000/svg" xmlns:xlink="http://www.w3.org/1999/xlink" x="0px" y="0px"
	 viewBox="0 0 300 300" style="enable-background:new 0 0 300 300;" xml:space="preserve">
<style type="text/css">
	.st0{fill:#C60C0C;}
	.st1{fill:#FFFFFF;}
</style>
<path d="M150,16.3c-56,0-101.5,45.5-101.5,101.5c0,24.8,25.9,64.8,53.3,107.1c11.2,17.3,21.9,33.7,30.4,48.6
	c3.7,6.4,10.3,10.3,17.7,10.3h0.1c7.5,0,14.1-3.9,17.7-10.5c8.3-14.9,19.3-32.2,30.9-50.5c27.2-42.7,52.8-83.1,52.8-105
	C251.5,61.8,206,16.3,150,16.3z M174.3,117.8c0,13.4-10.9,24.3-24.3,24.3s-24.3-10.9-24.3-24.3s10.9-24.3,24.3-24.3
	C163.4,93.5,174.3,104.4,174.3,117.8z"/>
<path class="st0" d="M150,33.3c43.7,0,79.8,33.4,84.1,76h-43.6c-3.9-18.7-20.6-32.8-40.4-32.8s-36.5,14.1-40.4,32.8H65.9
	C70.2,66.7,106.3,33.3,150,33.3z"/>
<path class="st1" d="M184.3,213.7c-11.8,18.5-22.9,36-31.4,51.3c-0.7,1.2-1.6,1.7-3,1.7h0c-1.3,0-2.3-0.6-2.9-1.7
	c-8.7-15.3-20-32.6-30.9-49.4c-20.7-31.9-43.8-67.6-49.3-89.3h42.8c3.9,18.7,20.6,32.8,40.4,32.8s36.5-14.1,40.4-32.8H233
	C226.9,146.7,203.6,183.4,184.3,213.7z"/>
</svg>
